<svg version="1.1" xmlns="http://www.w3.org/2000/svg" xmlns:xlink="http://www.w3.org/1999/xlink" width="49.67143" height="67.46268" viewBox="0,0,49.67143,67.46268"><g transform="translate(-215.21429,-139.49447)"><g data-paper-data="{&quot;isPaintingLayer&quot;:true}" fill-rule="nonzero" stroke="none" stroke-width="0" stroke-linecap="butt" stroke-linejoin="miter" stroke-miterlimit="10" stroke-dasharray="" stroke-dashoffset="0" style="mix-blend-mode: normal"><path d="M216.21429,206.78572v-43.27143h47.57143v43.27143z" fill="#ff0000"/><path d="M215.21429,166.48572v-9.77143h49.67143v9.77143z" fill="#da0000"/><path d="M237.13572,206.95715l0.07609,-50.61429h5.65248l-0.07609,50.61429z" fill="#00b20f"/><path d="M242.37859,153.93378l-1.44356,-0.80198c0,0 8.80168,-11.85924 15.48404,-12.0402c6.12035,-0.16574 8.26413,5.48427 7.25821,8.55428c-1.82027,5.55539 -20.49671,6.21265 -20.49671,6.21265l-0.56139,-1.20297c0,0 14.29251,-0.42902 17.68044,-5.86616c1.00935,-1.61986 0.04504,-3.52222 -2.95674,-3.27586c-4.2948,0.35249 -14.9643,8.42024 -14.9643,8.42024z" fill="#00b20f"/><path d="M235.94091,157.27618l1.7,-5.6l5.64285,0.2l1.3,5.4z" fill="#00b20f"/><path d="M224.67962,144.30774c-3.1583,-0.58388 -0.89169,5.01977 0.35996,6.39835c2.22689,2.45272 13.72546,3.73705 13.72546,3.73705l-0.51186,1.12624c0,0 -10.21499,0.71938 -15.37,-3.14856c-4.95792,-3.72006 -5.23438,-13.66793 0.68693,-12.88236c6.46504,0.85771 17.07457,12.74225 17.07457,12.74225l-1.57253,1.48668c0,0 -10.19063,-8.68284 -14.39253,-9.45965z" data-paper-data="{&quot;index&quot;:null}" fill="#00b20f"/><path d="M241.09682,155.85677l0.86965,-1.56391c0,0 10.42754,5.21401 15.28186,19.99681c0.33558,2.14644 -3.60953,-2.77922 -4.82031,-2.73876c-1.30445,0.04358 -1.46113,5.84528 -2.36977,4.1325c0.74997,-10.13162 -8.96143,-19.82663 -8.96143,-19.82663z" fill="#00b20f"/><path d="M227.81965,172.21238c-0.87175,1.92081 -0.67999,-4.73806 -1.60335,-5.09392c-1.26622,-0.33032 -4.67998,3.05652 -4.76023,1.65241c5.45712,-9.12319 15.29997,-13.73722 15.29997,-13.73722l1.86723,2.55988c0,0 -8.92205,4.02919 -10.80361,14.61885z" data-paper-data="{&quot;index&quot;:null}" fill="#00b20f"/></g></g></svg>