<svg version="1.1" xmlns="http://www.w3.org/2000/svg" xmlns:xlink="http://www.w3.org/1999/xlink" width="100.86517" height="84.78896" viewBox="0,0,100.86517,84.78896"><g transform="translate(-189.61545,-137.4386)"><g data-paper-data="{&quot;isPaintingLayer&quot;:true}" fill="#f2f2f2" fill-rule="nonzero" stroke="none" stroke-width="0" stroke-linecap="butt" stroke-linejoin="miter" stroke-miterlimit="10" stroke-dasharray="" stroke-dashoffset="0" style="mix-blend-mode: normal"><path d="M259.64286,213.71429c-0.48709,-0.28389 -5.03762,8.87642 -16.43093,8.5021c-10.09229,-0.33157 -12.0921,-5.26126 -15.71192,-9.78781c-0.75585,-0.94518 1.22976,-0.48649 -1.54498,0.60726c-21.5455,8.49284 -29.61031,-13.84379 -25.02645,-23.4644c0.47201,-0.99065 -14.0293,-6.39718 -10.85964,-20.93274c3.85883,-17.69598 19.28646,-13.81841 19.4032,-15.36861c0.72516,-9.62934 16.15744,-23.5852 31.08761,-10.5133c0.79501,0.69606 0.12998,1.12165 0.51169,0.81465c19.73496,-15.87242 34.40319,7.16355 31.60693,13.4629c-0.07647,0.17227 1.08875,0.29558 1.87312,0.27627c7.65928,-0.18859 24.74861,14.77054 10.32862,31.11448c-0.20423,0.23147 -0.24265,-0.04345 0.53184,1.13453c8.97081,13.64443 -7.40206,34.85953 -25.76908,24.15468z"/></g></g></svg>