<svg version="1.1" xmlns="http://www.w3.org/2000/svg" xmlns:xlink="http://www.w3.org/1999/xlink" width="118.81634" height="66.49999" viewBox="0,0,118.81634,66.49999"><g transform="translate(-180.41475,-146.68751)"><g data-paper-data="{&quot;isPaintingLayer&quot;:true}" fill="#f2f2f2" fill-rule="nonzero" stroke="none" stroke-width="0" stroke-linecap="butt" stroke-linejoin="miter" stroke-miterlimit="10" stroke-dasharray="" stroke-dashoffset="0" style="mix-blend-mode: normal"><path d="M262.6875,158.125c0,0 11.78551,-8.59038 30.5503,4.9342c2.72243,1.96217 10.8837,12.26241 1.85821,28.36624c-3.61534,4.66026 -7.25774,3.82151 -7.25774,3.82151c0,0 2.95926,10.58192 -12.4197,16.11202c-6.60609,2.37547 -24.88653,2.58008 -31.1334,-7.53383c-0.7819,-1.26593 -1.40169,8.73736 -15.78517,9.36236c-11.8155,-0.86702 -13.6875,-8.02886 -13.8125,-10.5625c-6.03374,10.15744 -27.32086,9.12882 -33.41906,-8.3719c-2.90922,-8.34894 1.46873,-22.71115 15.42064,-22.43841c0.47317,0.00925 -1.60523,-9.08442 8.61889,-15.38487c12.7121,-7.83363 21.0456,1.34152 21.0456,1.34152c0,0 2.10226,-9.50969 17.14644,-11.08383c13.95153,0.5 19.1875,11.4375 19.1875,11.4375z"/></g></g></svg>