<svg version="1.1" xmlns="http://www.w3.org/2000/svg" xmlns:xlink="http://www.w3.org/1999/xlink" width="134.93974" height="73.17911" viewBox="0,0,134.93974,73.17911"><g transform="translate(-172.53013,-143.41045)"><g data-paper-data="{&quot;isPaintingLayer&quot;:true}" fill="#f2f2f2" fill-rule="nonzero" stroke="none" stroke-width="0" stroke-linecap="butt" stroke-linejoin="miter" stroke-miterlimit="10" stroke-dasharray="" stroke-dashoffset="0" style="mix-blend-mode: normal"><path d="M283.39626,165.48881c22.56322,0.21889 23.93349,21.12076 23.93349,21.12076c0,0 3.27661,22.47937 -21.85955,26.61606c-7.49789,-0.66751 -5.70278,-1.19175 -6.71114,-0.66535c-11.69993,6.10774 -23.42073,-1.38152 -23.42073,-1.38152c0,0 -15.47379,12.48202 -31.41739,-0.4703c-1.04915,-0.85231 -4.63415,3.99144 -14.04493,-0.46871c-2.2914,-1.08599 -9.84068,11.81651 -25.7811,1.83506c-3.24454,-2.03164 -12.19854,-7.38596 -11.52919,-22.84625c0.20234,-4.67347 5.73259,-17.6106 17.76358,-20.14855c1.496,-0.31558 0.88215,-11.41153 12.26629,-16.77688c3.49853,-1.64886 13.14726,-6.2451 23.77363,0.63908c1.27034,0.82298 3.09637,-8.69227 18.69655,-9.53176c16.58232,0.15332 21.3121,13.72935 21.3121,13.72935c0,0 9.96558,-2.10652 17.01839,8.34902z"/></g></g></svg>