<svg version="1.1" xmlns="http://www.w3.org/2000/svg" xmlns:xlink="http://www.w3.org/1999/xlink" width="69.38581" height="144.79822" viewBox="0,0,69.38581,144.79822"><g transform="translate(-213.17796,-53.00914)"><g data-paper-data="{&quot;isPaintingLayer&quot;:true}" fill-rule="nonzero" stroke-linecap="butt" stroke-linejoin="miter" stroke-miterlimit="10" stroke-dasharray="" stroke-dashoffset="0" style="mix-blend-mode: normal"><path d="M245.06982,151.57301c0,0 -14.27956,-2.76529 -17.1793,-8.38797c-5.66276,-10.98026 -0.21757,-19.09081 -0.21757,-19.09081c0,0 2.5719,8.1438 9.67655,12.05046c5.66243,3.11362 7.72031,15.42833 7.72031,15.42833z" fill="#00b221" stroke="#00b221" stroke-width="0"/><path d="M251.64614,152.31604c9.98509,-5.26814 16.10555,-9.59798 16.10555,-9.59798c0,0 0.98753,2.11901 -2.94039,11.93948c-3.1429,7.85779 -21.47766,14.92716 -21.47766,14.92716c0,0 -1.0422,-12.3331 8.3125,-17.26865z" data-paper-data="{&quot;index&quot;:null}" fill="#00b221" stroke="#00b221" stroke-width="0"/><path d="M235.43868,197.35052c-0.23199,-3.11739 8.93335,-44.85248 12.04323,-100.00736c0.02168,-0.59653 3.22947,-2.00407 3.37389,-0.67578c2.2083,20.31023 -9.21712,101.08314 -9.21712,101.08314c0,0 -6.14946,0.2792 -6.2,-0.4z" fill="#00d327" stroke="#00da28" stroke-width="0"/><path d="M241.90663,79.7768c-23.2871,-9.06177 -12.13183,-22.9747 -6.01394,-25.44637c6.19097,-2.5012 20.8914,-4.16198 17.36048,21.54198c-0.47905,2.78685 -11.34654,3.90439 -11.34654,3.90439z" fill="#ff5252" stroke="#000000" stroke-width="0"/><path d="M258.15575,82.02948c17.77913,-9.23457 24.9777,1.44935 24.37303,9.412c-0.55069,7.25178 -10.17517,18.79764 -26.22183,2.31045c-2.23036,-1.67794 1.8488,-11.72246 1.8488,-11.72246z" fill="#ff5252" stroke="none" stroke-width="0"/><path d="M252.85985,93.61816c25.84301,7.35053 13.04428,20.11574 10.74096,21.80409c-1.94505,1.42574 -19.48857,8.2753 -19.95849,-14.68218c-0.37284,-2.85639 9.21754,-7.12191 9.21754,-7.12191z" fill="#ff5252" stroke="none" stroke-width="0"/><path d="M244.68788,99.09647c1.535,21.65443 -17.65204,15.77874 -21.2425,12.10624c-3.44432,-3.52302 -8.80078,-15.99238 13.58632,-20.6273c2.64247,-0.56737 7.65618,8.52106 7.65618,8.52106z" fill="#ff5252" stroke="none" stroke-width="0"/><path d="M252.38347,74.26873c-1.52808,-24.70761 16.1447,-19.0966 19.68971,-16.50484c4.1743,3.05183 13.41617,15.92509 -9.79148,23.94466c-2.50789,1.15806 -9.89823,-7.43983 -9.89823,-7.43983z" fill="#ff5252" stroke="none" stroke-width="0"/><path d="M237.05814,90.86067c-18.42037,10.27744 -23.75056,-2.78273 -23.87903,-8.84296c-0.12092,-5.70441 9.23711,-18.77257 26.82486,-2.3306c1.98849,1.84189 -2.94583,11.17356 -2.94583,11.17356z" fill="#ff5252" stroke="none" stroke-width="0"/><path d="M231.83898,85.33812c0,-8.89178 7.20821,-16.1 16.1,-16.1c8.89178,0 16.1,7.20821 16.1,16.1c0,8.89179 -7.20821,16.1 -16.1,16.1c-8.89178,0 -16.1,-7.20821 -16.1,-16.1z" fill="#ffea00" stroke="#ffea00" stroke-width="4.5"/></g></g></svg>