<svg version="1.1" xmlns="http://www.w3.org/2000/svg" xmlns:xlink="http://www.w3.org/1999/xlink" width="94.11433" height="67.84849" viewBox="0,0,94.11433,67.84849"><g transform="translate(-193.94283,-112.50432)"><g data-paper-data="{&quot;isPaintingLayer&quot;:true}" fill-rule="nonzero" stroke="none" stroke-width="0" stroke-linecap="butt" stroke-linejoin="miter" stroke-miterlimit="10" stroke-dasharray="" stroke-dashoffset="0" style="mix-blend-mode: normal"><path d="M239.77403,180.31256c0,0 13.05493,-15.22716 22.20943,-17.2233c16.8563,-3.67553 26.0737,-15.99452 26.0737,-15.99452c0,0 -2.61245,18.27971 -12.30135,23.69242c-10.99448,7.988 -35.98178,9.5254 -35.98178,9.5254z" data-paper-data="{&quot;index&quot;:null}" fill="#64de2f"/><path d="M193.94283,140.72829c0,0 15.82111,13.25877 33.00175,18.88848c16.67024,5.46246 13.14466,20.68445 13.14466,20.68445c0,0 -15.11969,1.1346 -23.95857,-7.23771c-8.79104,-8.327 -22.18784,-32.33522 -22.18784,-32.33522z" data-paper-data="{&quot;index&quot;:null}" fill="#67d339"/><path d="M272.27369,161.2338c-7.77523,10.27275 -32.21274,19.04605 -32.21274,19.04605c0,0 7.56674,-24.60635 15.99156,-25.84464c9.89997,-1.45512 26.47327,-23.531 26.47327,-23.531c0,0 -2.47685,20.05685 -10.25209,30.32959z" fill="#68d439"/><path d="M217.76412,124.66309c0,0 -0.31521,6.7619 14.17271,18.18203c12.00375,9.46197 8.17887,37.28576 8.17887,37.28576c0,0 -12.73603,-4.24705 -24.65944,-26.87342c-10.60608,-20.12656 2.30786,-28.59436 2.30786,-28.59436z" fill="#72e93f"/><path d="M228.61079,145.23164c-4.89047,-15.60263 9.77243,-31.17364 9.77243,-31.17364c0,0 -1.89617,12.113 10.81875,28.11426c4.1124,22.00289 -8.72018,37.42091 -8.72018,37.42091c0,0 -6.98052,-18.75891 -11.87099,-34.36154z" fill="#78da4e"/><path d="M248.67416,135.21117c10.40725,-11.21974 16.71669,-22.70685 16.71669,-22.70685c0,0 6.95837,16.72883 2.7868,29.78764c-3.5332,11.06044 -27.97719,37.96986 -27.97719,37.96986c0,0 -4.83563,-30.70225 8.47371,-45.05065z" fill="#6fe53e"/></g></g></svg>