<svg version="1.1" xmlns="http://www.w3.org/2000/svg" xmlns:xlink="http://www.w3.org/1999/xlink" width="100.11108" height="73.65275" viewBox="0,0,100.11108,73.65275"><g transform="translate(-191.66618,-116.86951)"><g data-paper-data="{&quot;isPaintingLayer&quot;:true}" fill-rule="nonzero" stroke="none" stroke-width="0" stroke-linecap="butt" stroke-linejoin="miter" stroke-miterlimit="10" stroke-dasharray="" stroke-dashoffset="0" style="mix-blend-mode: normal"><path d="M243.63734,188.80003c26.86185,-37.07074 48.13992,-29.43592 48.13992,-29.43592c0,0 -23.06036,3.9858 -40.29468,30.81093c-1.95468,-0.09929 -9.3824,0.74626 -8.55953,-0.51786z" fill="#4bce17"/><path d="M230.66316,190.27226c-14.48394,-55.22347 -38.99698,-32.56092 -38.99698,-32.56092c0,0 35.11892,-16.19341 44.74698,32.60259c-2.4952,0.1546 -3.5056,-0.02414 -5.75,-0.04167z" fill="#3ed004"/><path d="M231.72518,190.42373c13.44982,-35.67016 -24.38096,-71.60993 -24.38096,-71.60993c0,0 46.36494,32.83475 31.6949,71.53254c-1.56132,-0.03901 -5.7683,0.07588 -7.31394,0.07739z" fill="#41e400"/><path d="M233.9856,125.36412c0,0 16.32768,24.43754 9.12165,59.65589c-0.35868,1.75297 -0.77495,3.5577 -1.25365,5.41496c0,0 -6.0251,0.02855 -7.33333,0.08729c13.13333,-35.23282 -0.53467,-65.15814 -0.53467,-65.15814z" fill="#4fcf1d"/><path d="M238.62544,190.42504c13.33076,-37.63035 36.23516,-50.60259 36.23516,-50.60259c0,0 -17.4151,21.82825 -25.68754,50.55497c0,0 -9.22826,-0.02901 -10.54762,0.04762z" fill="#5dcc31"/><path d="M248.70783,116.86951c0,0 11.90141,35.98253 -3.33834,73.3883c-3.26128,0.01487 -6.54012,0.02639 -7.92064,0.04762c14.67425,-38.33252 11.25898,-73.43592 11.25898,-73.43592z" fill="#64d935"/></g></g></svg>