<svg version="1.1" xmlns="http://www.w3.org/2000/svg" xmlns:xlink="http://www.w3.org/1999/xlink" width="102.3873" height="112.98601" viewBox="0,0,102.3873,112.98601"><g transform="translate(-175.9,-101.74496)"><g data-paper-data="{&quot;isPaintingLayer&quot;:true}" fill-rule="nonzero" stroke-linejoin="miter" stroke-miterlimit="10" stroke-dasharray="" stroke-dashoffset="0" style="mix-blend-mode: normal"><path d="M202.98278,180.86133c0,-20.79477 16.85749,-37.65226 37.65226,-37.65226c20.79477,0 37.65226,16.85749 37.65226,37.65226c0,26.72217 -15.69526,33.99239 -39.91103,33.86808c-20.66795,-0.1061 -35.39349,-13.33915 -35.39349,-33.86808z" fill="#e2e2e2" stroke="#000000" stroke-width="0" stroke-linecap="butt"/><path d="M201.85556,179.13867c0,-20.79477 16.85749,-37.65226 37.65226,-37.65226c20.79477,0 37.65226,16.85749 37.65226,37.65226c0,20.79477 -10.98997,33.86945 -38.79512,33.87448c-23.48636,0.00425 -36.5094,-13.07971 -36.5094,-33.87448z" fill="#ffffff" stroke="#000000" stroke-width="0" stroke-linecap="butt"/><path d="M212.35565,130.86533c0,-15.59512 12.64234,-28.23745 28.23745,-28.23745c15.59512,0 28.23745,12.64234 28.23745,28.23745c0,15.59512 -12.64234,28.23745 -28.23745,28.23745c-15.59512,0 -28.23745,-12.64234 -28.23745,-28.23745z" fill="#e2e2e2" stroke="#000000" stroke-width="0" stroke-linecap="butt"/><path d="M211.725,129.98241c0,-15.59512 12.64234,-28.23745 28.23745,-28.23745c15.59512,0 28.23745,12.64234 28.23745,28.23745c0,15.59512 -12.64234,28.23745 -28.23745,28.23745c-15.59512,0 -28.23745,-12.64234 -28.23745,-28.23745z" fill="#ffffff" stroke="#000000" stroke-width="0" stroke-linecap="butt"/><path d="M237.15,194.40715c0,-1.57401 1.27599,-2.85 2.85,-2.85c1.57401,0 2.85,1.27599 2.85,2.85c0,1.57401 -1.27599,2.85 -2.85,2.85c-1.57401,0 -2.85,-1.27599 -2.85,-2.85z" fill="#000000" stroke="none" stroke-width="0" stroke-linecap="butt"/><path d="M237.15,180c0,-1.57401 1.27599,-2.85 2.85,-2.85c1.57401,0 2.85,1.27599 2.85,2.85c0,1.57401 -1.27599,2.85 -2.85,2.85c-1.57401,0 -2.85,-1.27599 -2.85,-2.85z" fill="#000000" stroke="none" stroke-width="0" stroke-linecap="butt"/><path d="M237.00715,165.73572c0,-1.57401 1.27599,-2.85 2.85,-2.85c1.57401,0 2.85,1.27599 2.85,2.85c0,1.57401 -1.27599,2.85 -2.85,2.85c-1.57401,0 -2.85,-1.27599 -2.85,-2.85z" fill="#000000" stroke="none" stroke-width="0" stroke-linecap="butt"/><path d="M229.49285,127.75715c0,-1.57401 1.27599,-2.85 2.85,-2.85c1.57401,0 2.85,1.27599 2.85,2.85c0,1.57401 -1.27599,2.85 -2.85,2.85c-1.57401,0 -2.85,-1.27599 -2.85,-2.85z" fill="#000000" stroke="none" stroke-width="1.5" stroke-linecap="butt"/><path d="M245.89285,127.9c0,-1.57401 1.27599,-2.85 2.85,-2.85c1.57401,0 2.85,1.27599 2.85,2.85c0,1.57401 -1.27599,2.85 -2.85,2.85c-1.57401,0 -2.85,-1.27599 -2.85,-2.85z" fill="#000000" stroke="none" stroke-width="1.5" stroke-linecap="butt"/><path d="M204.5,170.07619l-28.6,-4.4" fill="none" stroke="none" stroke-width="0" stroke-linecap="round"/><path d="" fill="none" stroke="#000000" stroke-width="1.5" stroke-linecap="round"/></g></g></svg>