<svg version="1.1" xmlns="http://www.w3.org/2000/svg" xmlns:xlink="http://www.w3.org/1999/xlink" width="130.25001" height="185.86573" viewBox="0,0,130.25001,185.86573"><g transform="translate(-172.66075,5.52926)"><g data-paper-data="{&quot;isPaintingLayer&quot;:true}" fill-rule="nonzero" stroke-linejoin="miter" stroke-miterlimit="10" stroke-dasharray="" stroke-dashoffset="0" style="mix-blend-mode: normal"><path d="M232.22399,180.33647c0,0 -6.18798,-25.66818 4.38499,-88.66667c2.35137,-14.01054 9.39352,-18.91098 11.25437,-4c3.08625,24.73011 2.55781,92.66667 2.55781,92.66667z" fill="none" stroke="none" stroke-width="0" stroke-linecap="butt"/><path d="M230.72399,180.33647c0,0 -6.18797,-25.66818 4.385,-88.66667c2.35137,-14.01054 9.39352,-18.91098 11.25437,-4c3.08626,24.73011 2.55781,92.66667 2.55781,92.66667z" fill="none" stroke="none" stroke-width="0" stroke-linecap="butt"/><g fill="none" stroke="none" stroke-width="0" stroke-linecap="butt"><path d="M173.08892,130.18123c65.67203,-9.29981 63.11987,-70.99792 68.82831,-71.08807c7.02776,-0.111 -0.56057,54.67497 60.59833,67.73927c-15.8089,13.33936 -19.90841,9.52661 -33.45794,7.56925c-6.15794,-1.18166 -11.16683,-3.10292 -16.52552,-2.96167c-13.26214,0.34958 -6.33739,6.09346 -26.77944,5.60769c-14.6134,-0.34727 -10.64069,-6.41176 -18.5867,-5.65455c-8.27764,0.78881 -21.96497,7.8879 -34.07704,-1.21191z"/><path d="M172.66075,130.09316c65.50359,-15.58522 63.51748,-78.56975 69.33853,-78.66666c7.1664,-0.11931 -1.06864,58.41312 60.91148,75.25c-11.7058,6.45447 -20.38092,9.362 -33.23569,5.69584c-6.49147,-1.19526 -11.38712,-3.33519 -16.85152,-3.18337c-13.52376,0.37575 -6.4624,6.5496 -27.30771,6.02746c-14.90168,-0.37327 -10.8506,-6.89173 -18.95336,-6.07784c-8.44092,0.84786 -21.93597,8.47836 -33.90172,0.95457z"/></g><g fill="none" stroke="none" stroke-width="0" stroke-linecap="butt"><path d="M181.35541,101.69302c56.46958,-7.99665 54.27505,-61.04916 59.18358,-61.12669c6.04298,-0.09545 3.60238,52.81764 56.19124,64.05128c-13.59364,11.47016 -18.00883,4.13276 -29.85396,0.95445c-8.03867,-0.1562 -11.4647,2.65212 -16.83484,2.57835c-9.35779,-0.12855 -11.38785,-1.6008 -19.9019,-1.80311c-9.81566,-0.54861 -14.89964,3.7367 -21.7322,4.38781c-12.86771,1.42828 -16.63708,-1.21741 -27.05192,-9.04209z"/><path d="M180.98724,101.61728c56.32474,-13.4013 54.61693,-67.55998 59.62229,-67.6433c6.16219,-0.10259 3.16551,56.03198 56.46052,70.50955c-15.31937,8.44697 -17.49034,2.5352 -29.66285,-0.65644c-8.32547,-0.16789 -11.65364,2.45675 -17.11516,2.3877c-9.44869,-0.11945 -10.93185,-0.74318 -20.35615,-1.44215c-10.06355,-0.57096 -15.08014,3.32399 -22.04748,4.02383c-13.00812,1.47905 -16.61214,-0.70969 -26.90116,-7.17919z"/></g><g fill="none" stroke="none" stroke-width="0" stroke-linecap="butt"><path d="M191.70536,79.072c47.03535,-6.66067 45.20746,-50.84984 49.29593,-50.91441c5.0334,-0.0795 3.00054,43.99353 46.80351,53.35039c-11.32259,9.55387 -16.40682,8.18692 -21.37329,7.02232c-8.22622,-1.92898 -15.23329,-3.41477 -19.06973,-3.26639c-18.34738,0.70963 -12.11175,-0.15981 -22.88154,-2.282c-11.46635,-0.49872 -11.6663,1.11043 -17.37653,1.38547c-4.56199,0.21974 -6.72348,1.22203 -15.39835,-5.2954z"/><path d="M191.3987,79.00893c46.91471,-11.16238 45.49223,-56.2729 49.66135,-56.34231c5.13269,-0.08545 2.63665,46.67086 47.0278,58.7297c-12.76,7.03575 -15.96207,6.84818 -21.21411,5.68056c-8.50275,-1.89031 -15.39092,-3.57557 -19.30322,-3.42517c-18.42334,0.70821 -12.52387,0.32817 -23.25989,-1.82007c-11.67282,-0.51734 -11.81563,0.59668 -17.63913,0.92101c-4.67424,0.26032 -6.70273,1.64492 -15.2728,-3.74374z"/></g><g fill="none" stroke="none" stroke-width="0" stroke-linecap="butt"><path d="M201.87071,59.36146c38.21373,-5.41144 36.72867,-41.3128 40.05034,-41.36527c4.08937,-0.06459 2.43778,35.74242 38.02538,43.34438c-9.86126,8.32082 -9.45046,2.16338 -23.84871,1.50336c-10.11815,2.33219 -7.69982,0.79267 -17.83262,-0.48695c-7.73565,-0.9769 -8.44169,-2.73092 -17.06537,-1.54031c-5.81665,-0.541 -12.28115,3.83987 -19.32901,-1.4552z"/><path d="M201.62157,59.31021c38.11572,-9.06885 36.96003,-45.71876 40.34723,-45.77515c4.17004,-0.06943 2.14214,37.91761 38.2076,47.71478c-11.18962,6.16986 -9.63612,0.92934 -23.90909,0.28423c-10.17966,2.33835 -7.85855,1.40738 -18.14002,-0.24269c-8.2791,-1.32871 -8.56383,-3.0102 -17.27873,-1.78661c-5.91167,-0.50664 -12.26426,4.18344 -19.22699,-0.19455z"/></g><g fill="none" stroke="none" stroke-width="0" stroke-linecap="butt"><path d="M211.06135,42.19234c29.10853,-4.12205 27.97732,-31.46918 30.50753,-31.50915c3.11499,-0.0492 1.85693,27.22605 28.96506,33.01669c-3.86673,1.23293 -9.47509,2.3666 -10.13532,2.11314c-11.77519,-4.52043 -18.9552,-2.26888 -26.69453,-1.57718c-4.57726,-0.85392 -6.16639,-2.39196 -9.68839,-2.05634c-3.66898,0.34964 -7.58578,4.04624 -12.95435,0.01283z"/><path d="M210.87157,42.1533c29.03387,-6.90801 28.15355,-34.82533 30.73368,-34.86828c3.17645,-0.05289 1.63173,28.88296 29.10386,36.34575c-9.39672,1.15418 -8.26986,1.55682 -10.03681,1.03276c-13.72295,-4.07012 -19.18464,-1.91214 -27.07318,-1.23939c-4.70503,-0.86545 -6.25943,-2.60469 -9.85091,-2.24394c-3.74137,0.37581 -7.57292,4.30795 -12.87663,0.9731z"/></g><path d="M233.80351,12.79325l-7.63048,-6.93306l10.70025,-2.01479l4.8062,-9.37466l4.60915,9.35493l10.95425,1.67514l-7.66795,7.29063l1.74828,10.34419l-9.73138,-5.12065l-9.33428,5.04891z" fill="#fbff00" stroke="none" stroke-width="0" stroke-linecap="butt"/><g fill="none" stroke="none"><path d="M270.75214,133.09889c0,-3.194 2.58925,-5.78325 5.78325,-5.78325c3.194,0 5.78325,2.58925 5.78325,5.78325c0,3.194 -2.58925,5.78325 -5.78325,5.78325c-3.194,0 -5.78325,-2.58925 -5.78325,-5.78325z" stroke-width="0" stroke-linecap="butt"/><path d="M276.42632,137.69904c-3.62737,-0.55629 -4.37287,-3.8334 -4.37287,-3.8334" stroke-width="1" stroke-linecap="round"/></g><g fill="none" stroke="none"><path d="M194.07976,108.83321c0,-3.194 2.58925,-5.78325 5.78325,-5.78325c3.194,0 5.78325,2.58926 5.78325,5.78325c0,3.194 -2.58925,5.78324 -5.78325,5.78324c-3.194,0 -5.78325,-2.58925 -5.78325,-5.78324z" stroke-width="0" stroke-linecap="butt"/><path d="M199.75394,113.43336c-3.62737,-0.55629 -4.37286,-3.83341 -4.37286,-3.83341" stroke-width="1" stroke-linecap="round"/></g><g fill="none" stroke="none"><path d="M249.69538,44.23682c0,-3.194 2.58925,-5.78325 5.78325,-5.78325c3.194,0 5.78325,2.58925 5.78325,5.78325c0,3.194 -2.58925,5.78325 -5.78325,5.78325c-3.194,0 -5.78325,-2.58925 -5.78325,-5.78325z" stroke-width="0" stroke-linecap="butt"/><path d="M255.36955,48.83696c-3.62737,-0.55628 -4.37286,-3.8334 -4.37286,-3.8334" stroke-width="1" stroke-linecap="round"/></g><g fill="none" stroke="none"><path d="M228.32976,83.33321c0,-3.194 2.58925,-5.78325 5.78325,-5.78325c3.194,0 5.78325,2.58926 5.78325,5.78325c0,3.194 -2.58925,5.78324 -5.78325,5.78324c-3.194,0 -5.78325,-2.58925 -5.78325,-5.78324z" stroke-width="0" stroke-linecap="butt"/><path d="M234.00394,87.93336c-3.62737,-0.55629 -4.37286,-3.83341 -4.37286,-3.83341" stroke-width="1" stroke-linecap="round"/></g><g fill="none" stroke="none" stroke-width="1"><path d="M244.82976,105.83321c0,-3.194 2.58925,-5.78325 5.78325,-5.78325c3.194,0 5.78325,2.58926 5.78325,5.78325c0,3.194 -2.58925,5.78324 -5.78325,5.78324c-3.194,0 -5.78325,-2.58925 -5.78325,-5.78324z" stroke-linecap="butt"/><path d="M250.50394,110.43336c-3.62737,-0.55629 -4.37286,-3.83341 -4.37286,-3.83341" stroke-linecap="round"/></g><path d="M200.21692,131.32789c0,-0.65849 0.53381,-1.19231 1.19231,-1.19231c0.65849,0 1.19231,0.53382 1.19231,1.19231c0,0.65849 -0.53382,1.19231 -1.19231,1.19231c-0.65849,0 -1.19231,-0.53381 -1.19231,-1.19231z" fill="none" stroke="none" stroke-width="0" stroke-linecap="butt"/><path d="M211.67846,130.48173c0,-0.65849 0.53381,-1.19231 1.19231,-1.19231c0.65849,0 1.19231,0.53382 1.19231,1.19231c0,0.65849 -0.53382,1.19231 -1.19231,1.19231c-0.65849,0 -1.19231,-0.53381 -1.19231,-1.19231z" fill="none" stroke="none" stroke-width="0" stroke-linecap="butt"/><path d="M237.67846,126.78943c0,-0.65849 0.53381,-1.19231 1.1923,-1.19231c0.65849,0 1.19231,0.53382 1.19231,1.19231c0,0.65849 -0.53382,1.19231 -1.19231,1.19231c-0.65849,0 -1.1923,-0.53381 -1.1923,-1.19231z" fill="none" stroke="none" stroke-width="0" stroke-linecap="butt"/><path d="M225.21692,128.78943c0,-0.65849 0.53381,-1.19231 1.19231,-1.19231c0.65849,0 1.19231,0.53382 1.19231,1.19231c0,0.65849 -0.53382,1.19231 -1.19231,1.19231c-0.65849,0 -1.19231,-0.53381 -1.19231,-1.19231z" fill="none" stroke="none" stroke-width="0" stroke-linecap="butt"/><g fill="none" stroke="none" stroke-width="1"><path d="M213.02976,133.33321c0,-3.194 2.58925,-5.78325 5.78325,-5.78325c3.194,0 5.78325,2.58926 5.78325,5.78325c0,3.194 -2.58925,5.78324 -5.78325,5.78324c-3.194,0 -5.78325,-2.58925 -5.78325,-5.78324z" stroke-linecap="butt"/><path d="M218.70394,137.93336c-3.62737,-0.55629 -4.37286,-3.83341 -4.37286,-3.83341" stroke-linecap="round"/></g><path d="M250.98615,123.78943c0,-0.65849 0.53381,-1.19231 1.19231,-1.19231c0.65849,0 1.19231,0.53382 1.19231,1.19231c0,0.65849 -0.53382,1.19231 -1.19231,1.19231c-0.65849,0 -1.19231,-0.53381 -1.19231,-1.19231z" fill="none" stroke="none" stroke-width="0" stroke-linecap="butt"/><path d="M262.37077,120.0202c0,-0.65849 0.53381,-1.19231 1.1923,-1.19231c0.6585,0 1.19231,0.53382 1.19231,1.19231c0,0.65849 -0.53382,1.19231 -1.19231,1.19231c-0.6585,0 -1.1923,-0.53381 -1.1923,-1.19231z" fill="none" stroke="none" stroke-width="0" stroke-linecap="butt"/><path d="M272.67846,115.32789c0,-0.65849 0.53381,-1.19231 1.19231,-1.19231c0.6585,0 1.19231,0.53382 1.19231,1.19231c0,0.65849 -0.53381,1.19231 -1.19231,1.19231c-0.6585,0 -1.19231,-0.53381 -1.19231,-1.19231z" fill="none" stroke="none" stroke-width="0" stroke-linecap="butt"/><path d="M281.37077,109.78943c0,-0.65849 0.53381,-1.19231 1.1923,-1.19231c0.6585,0 1.19231,0.53382 1.19231,1.19231c0,0.65849 -0.53382,1.19231 -1.19231,1.19231c-0.6585,0 -1.1923,-0.53381 -1.1923,-1.19231z" fill="none" stroke="none" stroke-width="0" stroke-linecap="butt"/><path d="M273.81949,109.17404c0,-0.65849 0.53381,-1.19231 1.1923,-1.19231c0.6585,0 1.19231,0.53382 1.19231,1.19231c0,0.65849 -0.53382,1.1923 -1.19231,1.1923c-0.6585,0 -1.1923,-0.53381 -1.1923,-1.1923z" fill="none" stroke="none" stroke-width="0" stroke-linecap="butt"/><path d="M263.60154,109.55866c0,-0.65849 0.53381,-1.19231 1.1923,-1.19231c0.6585,0 1.19231,0.53382 1.19231,1.19231c0,0.65849 -0.53382,1.1923 -1.19231,1.1923c-0.6585,0 -1.1923,-0.53381 -1.1923,-1.1923z" fill="none" stroke="none" stroke-width="0" stroke-linecap="butt"/><path d="M223.29385,103.40481c0,-0.65849 0.53381,-1.19231 1.19231,-1.19231c0.65849,0 1.19231,0.53382 1.19231,1.19231c0,0.65849 -0.53382,1.19231 -1.19231,1.19231c-0.65849,0 -1.19231,-0.53381 -1.19231,-1.19231z" fill="none" stroke="none" stroke-width="0" stroke-linecap="butt"/><path d="M236.06308,106.25096c0,-0.65849 0.53381,-1.19231 1.19231,-1.19231c0.65849,0 1.19231,0.53382 1.19231,1.19231c0,0.65849 -0.53382,1.19231 -1.19231,1.19231c-0.65849,0 -1.19231,-0.53381 -1.19231,-1.19231z" fill="none" stroke="none" stroke-width="0" stroke-linecap="butt"/><path d="M212.44769,100.48174c0,-0.65849 0.53381,-1.19231 1.19231,-1.19231c0.65849,0 1.19231,0.53382 1.19231,1.19231c0,0.65849 -0.53382,1.19231 -1.19231,1.19231c-0.65849,0 -1.19231,-0.53381 -1.19231,-1.19231z" fill="none" stroke="none" stroke-width="0" stroke-linecap="butt"/><path d="M201.29385,96.55866c0,-0.65849 0.53381,-1.19231 1.19231,-1.19231c0.65849,0 1.19231,0.53382 1.19231,1.19231c0,0.65849 -0.53382,1.19231 -1.19231,1.19231c-0.65849,0 -1.19231,-0.53381 -1.19231,-1.19231z" fill="none" stroke="none" stroke-width="0" stroke-linecap="butt"/><path d="M210.14,95.09712c0,-0.65849 0.53381,-1.19231 1.19231,-1.19231c0.65849,0 1.19231,0.53382 1.19231,1.19231c0,0.65849 -0.53382,1.1923 -1.19231,1.1923c-0.65849,0 -1.19231,-0.53381 -1.19231,-1.1923z" fill="none" stroke="none" stroke-width="0" stroke-linecap="butt"/><path d="M221.83231,94.48174c0,-0.65849 0.53381,-1.19231 1.19231,-1.19231c0.65849,0 1.19231,0.53382 1.19231,1.19231c0,0.65849 -0.53382,1.19231 -1.19231,1.19231c-0.65849,0 -1.19231,-0.53381 -1.19231,-1.19231z" fill="none" stroke="none" stroke-width="0" stroke-linecap="butt"/><path d="M236.14,92.94328c0,-0.65849 0.53381,-1.19231 1.19231,-1.19231c0.65849,0 1.19231,0.53382 1.19231,1.19231c0,0.65849 -0.53382,1.19231 -1.19231,1.19231c-0.65849,0 -1.19231,-0.53381 -1.19231,-1.19231z" fill="none" stroke="none" stroke-width="0" stroke-linecap="butt"/><path d="M248.90923,91.09712c0,-0.65849 0.53381,-1.19231 1.19231,-1.19231c0.65849,0 1.19231,0.53382 1.19231,1.19231c0,0.65849 -0.53382,1.1923 -1.19231,1.1923c-0.65849,0 -1.19231,-0.53381 -1.19231,-1.1923z" fill="none" stroke="none" stroke-width="0" stroke-linecap="butt"/><path d="M259.67846,89.0202c0,-0.65849 0.53381,-1.19231 1.19231,-1.19231c0.6585,0 1.19231,0.53382 1.19231,1.19231c0,0.65849 -0.53382,1.19231 -1.19231,1.19231c-0.6585,0 -1.19231,-0.53381 -1.19231,-1.19231z" fill="none" stroke="none" stroke-width="0" stroke-linecap="butt"/><path d="M273.44769,84.78943c0,-0.65849 0.53381,-1.19231 1.1923,-1.19231c0.6585,0 1.19231,0.53382 1.19231,1.19231c0,0.65849 -0.53382,1.19231 -1.19231,1.19231c-0.6585,0 -1.1923,-0.53381 -1.1923,-1.19231z" fill="none" stroke="none" stroke-width="0" stroke-linecap="butt"/><path d="M277.90923,81.34071c0,-0.65849 0.53381,-1.19231 1.19231,-1.19231c0.6585,0 1.19231,0.53382 1.19231,1.19231c0,0.65849 -0.53381,1.1923 -1.19231,1.1923c-0.6585,0 -1.19231,-0.53381 -1.19231,-1.1923z" fill="none" stroke="none" stroke-width="0" stroke-linecap="butt"/><path d="M266.58873,79.57148c0,-0.65849 0.53381,-1.19231 1.19231,-1.19231c0.6585,0 1.19231,0.53382 1.19231,1.19231c0,0.65849 -0.53381,1.19231 -1.19231,1.19231c-0.6585,0 -1.19231,-0.53381 -1.19231,-1.19231z" fill="none" stroke="none" stroke-width="0" stroke-linecap="butt"/><g fill="none"><path d="M261.11547,85.36892c0,-3.194 2.58925,-5.78325 5.78325,-5.78325c3.194,0 5.78325,2.58926 5.78325,5.78325c0,3.194 -2.58925,5.78324 -5.78325,5.78324c-3.194,0 -5.78325,-2.58925 -5.78325,-5.78324z" stroke="none" stroke-width="0" stroke-linecap="butt"/><path d="M266.78965,89.96907c-3.62736,-0.55629 -4.37286,-3.83341 -4.37286,-3.83341" stroke="#ffffff" stroke-width="1" stroke-linecap="round"/></g><path d="M255.5118,77.18687c0,-0.65849 0.53381,-1.19231 1.19231,-1.19231c0.6585,0 1.19231,0.53382 1.19231,1.19231c0,0.65849 -0.53382,1.19231 -1.19231,1.19231c-0.6585,0 -1.19231,-0.53381 -1.19231,-1.19231z" fill="none" stroke="none" stroke-width="0" stroke-linecap="butt"/><path d="M245.05026,74.41764c0,-0.65849 0.53381,-1.19231 1.19231,-1.19231c0.65849,0 1.19231,0.53382 1.19231,1.19231c0,0.65849 -0.53382,1.19231 -1.19231,1.19231c-0.65849,0 -1.19231,-0.53381 -1.19231,-1.19231z" fill="none" stroke="none" stroke-width="0" stroke-linecap="butt"/><path d="M234.5118,70.72533c0,-0.65849 0.53381,-1.19231 1.19231,-1.19231c0.65849,0 1.19231,0.53382 1.19231,1.19231c0,0.65849 -0.53382,1.1923 -1.19231,1.1923c-0.65849,0 -1.19231,-0.53381 -1.19231,-1.1923z" fill="none" stroke="none" stroke-width="0" stroke-linecap="butt"/><path d="M225.05026,65.95609c0,-0.65849 0.53381,-1.19231 1.19231,-1.19231c0.65849,0 1.19231,0.53382 1.19231,1.19231c0,0.65849 -0.53382,1.19231 -1.19231,1.19231c-0.65849,0 -1.19231,-0.53381 -1.19231,-1.19231z" fill="none" stroke="none" stroke-width="0" stroke-linecap="butt"/><g fill="none" stroke="none"><path d="M218.44538,59.73682c0,-3.194 2.58925,-5.78325 5.78325,-5.78325c3.194,0 5.78325,2.58925 5.78325,5.78325c0,3.194 -2.58925,5.78325 -5.78325,5.78325c-3.194,0 -5.78325,-2.58925 -5.78325,-5.78325z" stroke-width="0" stroke-linecap="butt"/><path d="M224.11955,64.33696c-3.62737,-0.55628 -4.37286,-3.8334 -4.37286,-3.8334" stroke-width="1" stroke-linecap="round"/></g><path d="M214.81949,58.18687c0,-0.65849 0.53381,-1.19231 1.19231,-1.19231c0.65849,0 1.19231,0.53382 1.19231,1.19231c0,0.65849 -0.53382,1.19231 -1.19231,1.19231c-0.65849,0 -1.19231,-0.53381 -1.19231,-1.19231z" fill="none" stroke="none" stroke-width="0" stroke-linecap="butt"/><path d="M218.66565,52.26379c0,-0.65849 0.53381,-1.19231 1.19231,-1.19231c0.65849,0 1.19231,0.53382 1.19231,1.19231c0,0.65849 -0.53382,1.1923 -1.19231,1.1923c-0.65849,0 -1.19231,-0.53381 -1.19231,-1.1923z" fill="none" stroke="#000000" stroke-width="0" stroke-linecap="butt"/><path d="M228.28103,45.87917c0,-0.65849 0.53381,-1.19231 1.19231,-1.19231c0.65849,0 1.19231,0.53382 1.19231,1.19231c0,0.65849 -0.53382,1.19231 -1.19231,1.19231c-0.65849,0 -1.19231,-0.53381 -1.19231,-1.19231z" fill="none" stroke="#000000" stroke-width="0" stroke-linecap="butt"/><path d="M237.20411,36.57148c0,-0.6585 0.53381,-1.19231 1.19231,-1.19231c0.65849,0 1.19231,0.53382 1.19231,1.19231c0,0.6585 -0.53382,1.1923 -1.19231,1.1923c-0.65849,0 -1.19231,-0.53381 -1.19231,-1.1923z" fill="none" stroke="#000000" stroke-width="0" stroke-linecap="butt"/><path d="M242.74257,29.72533c0,-0.6585 0.53381,-1.19231 1.19231,-1.19231c0.65849,0 1.19231,0.53381 1.19231,1.19231c0,0.6585 -0.53382,1.19231 -1.19231,1.19231c-0.65849,0 -1.19231,-0.53381 -1.19231,-1.19231z" fill="none" stroke="#000000" stroke-width="0" stroke-linecap="butt"/></g></g></svg>